<svg width="24" height="24" viewBox="0 0 24 24" fill="none" xmlns="http://www.w3.org/2000/svg">
<g clip-path="url(#clip0_52_1080)">
<path d="M12.0006 -0.000183105C8.7416 -0.000183105 8.3326 0.0140673 7.05259 0.0723179C5.77507 0.130819 4.90306 0.333071 4.14005 0.629824C3.3508 0.936327 2.68129 1.34633 2.01428 2.01359C1.34678 2.6806 0.936771 3.3501 0.629268 4.13911C0.331765 4.90237 0.129263 5.77463 0.0717624 7.05164C0.0145118 8.33166 -0.000488281 8.74091 -0.000488281 11.9999C-0.000488281 15.259 0.0140121 15.6667 0.0720127 16.9468C0.130763 18.2243 0.333015 19.0963 0.629518 19.8593C0.936272 20.6485 1.34628 21.318 2.01353 21.9851C2.68029 22.6526 3.3498 23.0636 4.13855 23.3701C4.90206 23.6668 5.77432 23.8691 7.05158 23.9276C8.3316 23.9858 8.74035 24.0001 11.9991 24.0001C15.2584 24.0001 15.6662 23.9858 16.9462 23.9276C18.2237 23.8691 19.0967 23.6668 19.8602 23.3701C20.6492 23.0636 21.3177 22.6526 21.9845 21.9851C22.652 21.318 23.062 20.6485 23.3695 19.8595C23.6645 19.0963 23.867 18.224 23.927 16.947C23.9845 15.667 23.9995 15.259 23.9995 11.9999C23.9995 8.74091 23.9845 8.33191 23.927 7.05189C23.867 5.77438 23.6645 4.90237 23.3695 4.13936C23.062 3.3501 22.652 2.6806 21.9845 2.01359C21.317 1.34608 20.6495 0.936077 19.8595 0.629824C19.0945 0.333071 18.222 0.130819 16.9444 0.0723179C15.6644 0.0140673 15.2569 -0.000183105 11.9969 -0.000183105H12.0006ZM10.9241 2.16234C11.2436 2.16184 11.6001 2.16234 12.0006 2.16234C15.2047 2.16234 15.5844 2.17384 16.8497 2.23134C18.0197 2.28484 18.6547 2.48034 19.0777 2.6446C19.6377 2.8621 20.037 3.1221 20.4567 3.5421C20.8767 3.96211 21.1367 4.36211 21.3547 4.92212C21.519 5.34462 21.7147 5.97963 21.768 7.14964C21.8255 8.41466 21.838 8.79466 21.838 11.9972C21.838 15.1997 21.8255 15.5797 21.768 16.8447C21.7145 18.0148 21.519 18.6498 21.3547 19.0723C21.1372 19.6323 20.8767 20.031 20.4567 20.4508C20.0367 20.8708 19.638 21.1308 19.0777 21.3483C18.6552 21.5133 18.0197 21.7083 16.8497 21.7618C15.5847 21.8193 15.2047 21.8318 12.0006 21.8318C8.79635 21.8318 8.4166 21.8193 7.15159 21.7618C5.98157 21.7078 5.34657 21.5123 4.92331 21.348C4.36331 21.1305 3.9633 20.8705 3.5433 20.4505C3.12329 20.0305 2.86329 19.6315 2.64529 19.0713C2.48104 18.6488 2.28529 18.0138 2.23203 16.8438C2.17453 15.5787 2.16303 15.1987 2.16303 11.9942C2.16303 8.78966 2.17453 8.41166 2.23203 7.14665C2.28554 5.97663 2.48104 5.34162 2.64529 4.91862C2.86279 4.35861 3.12329 3.95861 3.5433 3.5386C3.9633 3.1186 4.36331 2.8586 4.92331 2.6406C5.34632 2.47559 5.98157 2.28059 7.15159 2.22684C8.2586 2.17684 8.6876 2.16184 10.9241 2.15934V2.16234ZM18.4062 4.15486C17.6112 4.15486 16.9662 4.79912 16.9662 5.59438C16.9662 6.38939 17.6112 7.03439 18.4062 7.03439C19.2012 7.03439 19.8462 6.38939 19.8462 5.59438C19.8462 4.79937 19.2012 4.15436 18.4062 4.15436V4.15486ZM12.0006 5.83738C8.59735 5.83738 5.83807 8.59666 5.83807 11.9999C5.83807 15.4032 8.59735 18.1613 12.0006 18.1613C15.4039 18.1613 18.1622 15.4032 18.1622 11.9999C18.1622 8.59666 15.4039 5.83738 12.0006 5.83738ZM12.0006 7.9999C14.2097 7.9999 16.0007 9.79067 16.0007 11.9999C16.0007 14.209 14.2097 16 12.0006 16C9.79136 16 8.0006 14.209 8.0006 11.9999C8.0006 9.79067 9.79136 7.9999 12.0006 7.9999Z" fill="#3366FF"/>
</g>
<defs>
<clipPath id="clip0_52_1080">
<rect width="24.0007" height="24" fill="white" transform="translate(-0.000366211)"/>
</clipPath>
</defs>
</svg>
